# xmcd
#
# Track frame offsets: 
#        150
#        19945
#        33743
#        53358
#        74949
#        95365
#        112256
#        126621
#        147231
#        169333
#        190993
#        205233
#        223870
#        242879
#        264061
#
# Disc length: 3741 seconds
#
# Revision: 0
# Processed by: cddbd v1.5.2PL0 Copyright (c) Steve Scherf et al.
# Submitted via: ExactAudioCopy v1.0b6
#
DISCID=f10e9b0f
DTITLE=長山洋子 - 長山洋子 30周年記念 演歌シングルコレクション Disc 2 VICL-64060-2
DYEAR=1900
DGENRE=JPop
TTITLE0=父さんの詩
TTITLE1=桶屋の八つぁん
TTITLE2=花園しぐれ
TTITLE3=傘
TTITLE4=さだめ雪
TTITLE5=むすばれたいの
TTITLE6=恋酒場
TTITLE7=紅い雪
TTITLE8=遠野物語
TTITLE9=めぐり逢い 
TTITLE10=艶姿女花吹雪
TTITLE11=愛 ありがとう
TTITLE12=嵐峡 
TTITLE13=じょんから女節
TTITLE14=ありんことひまわり 
EXTD=
EXTT0=
EXTT1=
EXTT2=
EXTT3=
EXTT4=
EXTT5=
EXTT6=
EXTT7=
EXTT8=
EXTT9=
EXTT10=
EXTT11=
EXTT12=
EXTT13=
EXTT14=
PLAYORDER=
